# xmcd CD database file
#
# Track frame offsets:
#	150
#	23473
#	37165
#	61106
#	84990
#	119387
#	133016
#	154075
#	174413
#	201210
#	216730
#	231512
#	257387
#	274325
#
# Disc length: 4016 seconds
#
# Revision: 1
# Processed by: cddbd v1.5.1PL2 Copyright (c) Steve Scherf et al.
# Submitted via: CDex 1.51
#
DISCID=c60fae0e
DTITLE=Thelonious Monk - Blue Monk
DYEAR=1955
DGENRE=Jazz
TTITLE0='Round About Midnight
TTITLE1=Reflections (Evidence)
TTITLE2=Work
TTITLE3=Nutty
TTITLE4=Blue Monk
TTITLE5=Just A Gigolo
TTITLE6=It Don't Mean A Thing (If It Ain't Got That Swing)
TTITLE7=Sophisticated Lady
TTITLE8=I Got It Bad (And That Ain't Good)
TTITLE9=Black And Tan Fantasy
TTITLE10=Mood Indigo
TTITLE11=I Let A Song Go Out Of My Heart
TTITLE12=Solitude
TTITLE13=Caravan
EXTD=YEAR: 1955
EXTT0=
EXTT1=
EXTT2=
EXTT3=
EXTT4=
EXTT5=
EXTT6=
EXTT7=
EXTT8=
EXTT9=
EXTT10=
EXTT11=
EXTT12=
EXTT13=
PLAYORDER=
